<?xml version="1.0" encoding="utf-8"?>
<!-- Generator: Adobe Illustrator 22.1.0, SVG Export Plug-In . SVG Version: 6.00 Build 0)  -->
<svg version="1.1"
	 id="Layer_1" xmlns:cc="http://creativecommons.org/ns#" xmlns:dc="http://purl.org/dc/elements/1.1/" xmlns:inkscape="http://www.inkscape.org/namespaces/inkscape" xmlns:rdf="http://www.w3.org/1999/02/22-rdf-syntax-ns#" xmlns:sodipodi="http://sodipodi.sourceforge.net/DTD/sodipodi-0.dtd" xmlns:svg="http://www.w3.org/2000/svg"
	 xmlns="http://www.w3.org/2000/svg" xmlns:xlink="http://www.w3.org/1999/xlink" x="0px" y="0px" viewBox="0 0 100 100"
	 style="enable-background:new 0 0 100 100;" xml:space="preserve">
<g transform="translate(0,-952.36218)">
	<path d="M52.6,952.4C23,950.9-1.4,975.3,0.1,1005c1.3,25.4,21.9,46,47.3,47.3c29.6,1.5,54.1-22.9,52.5-52.5
		C98.6,974.4,78,953.7,52.6,952.4z M47.1,957.5c27.2-1.7,49.5,20.6,47.8,47.8c-1.4,22.4-19.6,40.6-42,42
		c-27.2,1.7-49.5-20.6-47.8-47.8C6.5,977,24.7,958.9,47.1,957.5z M36.3,985.8v33c0,2.6,2.9,4.3,5.1,2.9l27.5-16.5
		c2.2-1.3,2.2-4.5,0-5.8l-27.5-16.5C39.1,981.6,36.3,983.2,36.3,985.8z"/>
</g>
</svg>
