<?xml version="1.0" encoding="utf-8"?>
<!-- Generator: Adobe Illustrator 22.1.0, SVG Export Plug-In . SVG Version: 6.00 Build 0)  -->
<svg version="1.1" id="Layer_1" xmlns="http://www.w3.org/2000/svg" xmlns:xlink="http://www.w3.org/1999/xlink" x="0px" y="0px"
	 viewBox="0 0 109.9 109.9" style="enable-background:new 0 0 109.9 109.9;" xml:space="preserve">
<style type="text/css">
	.st0{fill:#231F20;}
</style>
<title>designIcon</title>
<path class="st0" d="M106.3,0H3.7C1.6,0,0,1.6,0,3.7v102.6c0,2,1.6,3.7,3.7,3.7h102.6c0,0,0,0,0,0c2,0,3.7-1.6,3.7-3.7V3.7
	c0,0,0,0,0,0C110,1.6,108.3,0,106.3,0z M106.3,106.3H3.7V16.5H72c0.7,0,1.3,0.1,1.9,0.3l12.2,4.6c1,0.4,2.1,0.6,3.2,0.6h17V106.3z
	 M106.3,18.3h-17c-0.7,0-1.3-0.1-1.9-0.3l-12.2-4.6c-1-0.4-2.1-0.6-3.2-0.6H3.7V3.7h102.6V18.3z"/>
<path class="st0" d="M84.3,10.1c0,1.5-1.3,2.7-2.8,2.7c-1.5,0-2.7-1.3-2.7-2.8c0-1.5,1.2-2.7,2.7-2.7C83.1,7.3,84.3,8.6,84.3,10.1
	C84.3,10.1,84.3,10.1,84.3,10.1z"/>
<path class="st0" d="M90.7,12.8c1.5,0,2.7-1.2,2.7-2.8s-1.2-2.7-2.8-2.7c-1.5,0-2.7,1.2-2.7,2.8c0,0,0,0,0,0
	C88,11.6,89.2,12.8,90.7,12.8z"/>
<path class="st0" d="M102.6,10.1c0,1.5-1.2,2.8-2.8,2.8s-2.8-1.2-2.8-2.8s1.2-2.7,2.8-2.7S102.6,8.6,102.6,10.1z"/>
<path class="st0" d="M92.7,34.7L79.5,21.6c0,0,0,0,0,0c-1.4-1.4-3.7-1.4-5.2,0L53.1,42.7L35.4,25c-2.9-2.9-7.5-2.9-10.4,0l-8.8,8.8
	c-2.9,2.9-2.9,7.5,0,10.4L34,61.9L16.8,79.1c0,0,0,0,0,0c-1.4,1.4-1.4,3.7,0,5.2L30,97.4c0,0,0,0,0,0c1.4,1.4,3.7,1.4,5.2,0
	l17.1-17.1L63,91c0.5,0.5,1.1,0.8,1.7,1l18.7,4.7c0.6,0.1,1.2,0.1,1.8,0c2-0.5,3.2-2.5,2.7-4.4l-4.7-18.7c-0.2-0.6-0.5-1.2-1-1.7
	L71.5,61.1l21.2-21.2c0,0,0,0,0,0C94.1,38.5,94.1,36.2,92.7,34.7z M18.8,41.6c-1.4-1.4-1.4-3.7,0-5.2c0,0,0,0,0,0h0l8.8-8.8
	c1.4-1.4,3.7-1.4,5.2,0c0,0,0,0,0,0l4.7,4.7l-14,14L18.8,41.6z M31.5,54.3l-5.4-5.4l14-14l5.4,5.4L31.5,54.3z M32.6,94.8L19.4,81.7
	l5.3-5.3l3.5,3.5c0.7,0.7,1.9,0.7,2.6,0s0.7-1.9,0-2.6l-3.5-3.5l9.3-9.3l13.2,13.2L32.6,94.8z M82.4,85.3l1.9,7.8l-7.8-1.9
	L82.4,85.3z M81.3,81.2l-8.9,8.9l-6.1-1.5l13.5-13.5L81.3,81.2z M77.5,72.3l-14,14L34.1,56.9l14-14L77.5,72.3z M68.9,58.5L55.8,45.3
	l1.1-1.1l3.5,3.5c0.7,0.7,1.9,0.7,2.6,0s0.7-1.9,0-2.6l-3.6-3.5l8.1-8.1l3.5,3.5c0.7,0.7,1.9,0.7,2.6,0c0.7-0.7,0.7-1.9,0-2.6
	L70.1,31l6.8-6.8l13.1,13.2L68.9,58.5z"/>
</svg>
