<svg id="Layer_1" data-name="Layer 1" xmlns="http://www.w3.org/2000/svg" viewBox="0 0 82.36 90"><title>designIcon</title><path d="M55,30.89a24.67,24.67,0,0,0-4.37.4l1.87-3.23c1-1.74,1.33-3.07,1-4.19a4.44,4.44,0,0,0-2.48-2.53l-.3-.18-.3-.17h0A4.46,4.46,0,0,0,47,20.1c-1.12.3-2.11,1.24-3.11,3L20.87,63,19,66.2a1.17,1.17,0,0,0-.16.55l-.52,8.34h0a1.25,1.25,0,0,0,1.94,1.12l7-4.62a1.21,1.21,0,0,0,.39-.42l5.06-8.76a39.46,39.46,0,0,0,3.57,5.22c3,3.93,6.14,8,6.46,15.34H41.26A1.25,1.25,0,0,0,40,84.22V87.7a4.74,4.74,0,0,0,3.48,4.56v2.4a4.72,4.72,0,0,0,4.72,4.72h.63V101a4.07,4.07,0,0,0,4.06,4h4.2a4.06,4.06,0,0,0,4.06-4.06V99.37h.63a4.74,4.74,0,0,0,4.73-4.72v-2.4A4.75,4.75,0,0,0,70,87.7V84.22a1.26,1.26,0,0,0-.37-.88,1.22,1.22,0,0,0-.88-.37H67.31c.32-7.34,3.44-11.41,6.46-15.34C76.56,64,79.2,60.55,79.2,55.09A24.24,24.24,0,0,0,55,30.89ZM27.93,65.6l-4.27-2.47L40,34.92l4.27,2.47ZM45.47,35.22l-4.28-2.47,1.87-3.23L47.33,32Zm.58-10.88c.86-1.49,1.4-1.77,1.59-1.82s.88.24,1.53.62l.32.19.32.18c.65.37,1.21.69,1.3,1,0,.18.08.79-.78,2.28l-1.74,3-4.28-2.46ZM21,72.73l.35-5.53,1.1-1.9,4.28,2.47-1.1,1.9Zm37.7,28.2h0a1.57,1.57,0,0,1-.45,1.11,1.59,1.59,0,0,1-1.11.46H52.9a1.56,1.56,0,0,1-1.56-1.56V99.37h7.32Zm3.13-4.06H48.21A2.22,2.22,0,0,1,46,94.64V92.42H64v2.23a2.22,2.22,0,0,1-2.23,2.22Zm5.7-9.18a2.24,2.24,0,0,1-2.22,2.23H44.74a2.24,2.24,0,0,1-2.23-2.22V85.47h25Zm4.3-21.59c-3.13,4.07-6.65,8.67-7,16.86H56.25V63.36a9.77,9.77,0,0,0,8.49-9.66,1.25,1.25,0,1,0-2.5,0,7.24,7.24,0,1,1-14.48,0,1.25,1.25,0,0,0-2.5,0,9.76,9.76,0,0,0,8.49,9.66V83H45.19c-.33-8.2-3.85-12.79-7-16.87a27.59,27.59,0,0,1-4-6.33L48.91,34.26A21.71,21.71,0,0,1,76.7,55.09c0,4.61-2.27,7.58-4.91,11ZM53.94,21.86V16.25A1.26,1.26,0,0,1,55.19,15a1.24,1.24,0,0,1,1.25,1.25v5.61a1.24,1.24,0,0,1-1.25,1.25A1.25,1.25,0,0,1,53.94,21.86ZM84.26,27.2a1.25,1.25,0,0,1,0,1.77l-4,4a1.25,1.25,0,0,1-1.76-1.77l4-4A1.25,1.25,0,0,1,84.26,27.2ZM96.18,56.38a1.26,1.26,0,0,1-1.25,1.25H89.32a1.25,1.25,0,0,1,0-2.5h5.61a1.25,1.25,0,0,1,1.25,1.25Zm-75.5.86H15.07A1.26,1.26,0,0,1,13.82,56a1.24,1.24,0,0,1,1.25-1.25h5.61A1.24,1.24,0,0,1,21.93,56,1.26,1.26,0,0,1,20.68,57.24ZM26,28.69a1.25,1.25,0,0,1,1.77-1.77l4,4A1.25,1.25,0,0,1,30,32.66Z" transform="translate(-13.82 -15)"/></svg>