<?xml version="1.0" encoding="utf-8"?>
<!-- Generator: Adobe Illustrator 22.1.0, SVG Export Plug-In . SVG Version: 6.00 Build 0)  -->
<svg version="1.1" id="Layer_1" xmlns="http://www.w3.org/2000/svg" xmlns:xlink="http://www.w3.org/1999/xlink" x="0px" y="0px"
	 viewBox="0 0 110 110" style="enable-background:new 0 0 110 110;" xml:space="preserve">
<path d="M92.5,36.3c-0.6-9.2-4.6-17.9-11.2-24.4C74.7,5.4,66,1.5,56.7,1L55,1c-9.9,0-19.5,4-26.5,11c-7,7-11,16.6-11,26.5
	c0,0.8,0,1.5,0.1,2.2c0,0,0,0,0,0.1c0,0.1,0,0.3,0,0.4c0.5,7.3,3.1,14.3,7.5,20.1c3,4,5.6,8.3,7.7,12.9l2.2,4.5
	c-1.7,1.4-2.6,3.6-2.3,5.8c0.3,2.2,1.6,4.1,3.7,5.1c-1.4,2-1.5,4.6-0.4,6.7c1.1,2.1,3.4,3.5,5.8,3.5v3.3c0,3.8,3.1,6.9,6.9,6.9h12.6
	c3.8,0,6.9-3.1,6.9-6.9v-3.3c2.4,0,4.6-1.3,5.8-3.5c1.1-2.1,1-4.7-0.4-6.7c2-1,3.4-2.9,3.7-5.1c0.3-2.2-0.6-4.4-2.3-5.8l2.2-4.5
	c2.4-4.8,5.2-9.4,8.4-13.7c4.1-5.7,6.6-12.4,7-19.4v-0.1l0,0C92.6,39.3,92.6,37.8,92.5,36.3L92.5,36.3z M68.2,96.3H41.8
	c-1.6-0.1-2.8-1.4-2.8-3s1.2-2.9,2.8-3h26.5c1.6,0.1,2.8,1.4,2.8,3C71.1,94.9,69.8,96.2,68.2,96.3z M64.7,103.1c0,0.9-0.4,1.8-1,2.4
	c-0.6,0.6-1.5,1-2.4,1H48.7c-1.9,0-3.4-1.5-3.4-3.4v-3.3h19.3L64.7,103.1z M38.2,77.2L36,72.6c-2.2-4.8-5-9.3-8.1-13.5
	c-3.7-4.8-6-10.5-6.7-16.5h8.5c0.7,0,1.3-0.4,1.6-1c0.3-0.6,0.2-1.3-0.2-1.8c-1-1.3-1.5-2.8-1.5-4.5c0.2-4,3.4-7.1,7.4-7.1
	c4,0,7.2,3.1,7.4,7.1c0,1.6-0.5,3.2-1.5,4.5c-0.4,0.5-0.5,1.2-0.2,1.8c0.3,0.6,0.9,1,1.6,1h9v5.7c-1.3-0.5-2.7-0.8-4.1-0.8
	c-6,0-10.9,4.9-10.9,10.9s4.9,10.9,10.9,10.9c1.4,0,2.8-0.3,4.1-0.8v8.7L38.2,77.2z M89,39.1h-9.7c-0.7,0-1.3,0.4-1.6,1.1
	c-0.3,0.6-0.1,1.4,0.3,1.9c1.3,1.4,2,3.1,2,5c0,4.1-3.3,7.4-7.4,7.4c-4.1,0-7.4-3.3-7.4-7.4c0-1.9,0.7-3.6,2-5
	c0.5-0.5,0.6-1.3,0.3-1.9c-0.3-0.6-0.9-1.1-1.6-1.1h-9.1v-7c3.3,1.2,7.1,0.7,10-1.3c2.9-2,4.6-5.4,4.6-8.9s-1.7-6.9-4.6-8.9
	c-2.9-2-6.6-2.5-10-1.3v-7c8.3,0.5,16.2,4,22.1,9.9c5.9,5.9,9.5,13.7,10.1,22C89,37.4,89,38.2,89,39.1L89,39.1z M53.2,4.6v9.9
	c0,0.7,0.4,1.3,1,1.6c0.6,0.3,1.3,0.2,1.8-0.2c1.3-0.9,2.8-1.4,4.4-1.4c4.1,0,7.4,3.3,7.4,7.4s-3.3,7.4-7.4,7.4
	c-1.6,0-3.2-0.5-4.4-1.5c-0.5-0.4-1.2-0.5-1.8-0.2c-0.6,0.3-1,0.9-1,1.6v10h-6c0.4-1.2,0.7-2.5,0.7-3.8c-0.2-5.9-5-10.5-10.9-10.5
	c-5.9,0-10.7,4.7-10.9,10.5c0,1.3,0.2,2.6,0.7,3.8H21v-0.5c0-8.7,3.4-17.1,9.3-23.4C36.4,8.8,44.5,5,53.2,4.6L53.2,4.6z M70.8,86.7
	H39.2c-1.7,0-3-1.4-3-3c0-1.7,1.4-3,3-3h31.6c1.7,0,3,1.4,3,3C73.8,85.4,72.5,86.7,70.8,86.7L70.8,86.7z M70.8,77.2H56.8V65.4
	c0-0.7-0.4-1.4-1-1.7c-0.6-0.3-1.4-0.2-1.9,0.3c-1.3,1.1-3,1.7-4.7,1.7c-4.1,0-7.4-3.3-7.4-7.4c0-4.1,3.3-7.4,7.4-7.4
	c1.7,0,3.4,0.6,4.7,1.7c0.5,0.4,1.3,0.5,1.9,0.3c0.6-0.3,1-0.9,1-1.6v-8.8h5.9c-1.5,3.4-1.2,7.3,0.8,10.4c2,3.1,5.4,5,9.1,5
	c3.7,0,7.1-1.9,9.1-5c2-3.1,2.3-7,0.8-10.4h6.3c-0.7,5.7-2.8,11.1-6.1,15.8c-3.3,4.5-6.2,9.3-8.7,14.3l-2.2,4.5L70.8,77.2z"/>
</svg>
