<svg id="Layer_1" data-name="Layer 1" xmlns="http://www.w3.org/2000/svg" viewBox="0 0 110.03 77.2"><title>responsiveIcon</title><path d="M85.59,35.39V30.51H50.51l-10.85,4a1.77,1.77,0,0,1-.73.16H3.54V69.77a2.31,2.31,0,0,0,.69,1.66,2.36,2.36,0,0,0,1.67.7H71.08V41A5.54,5.54,0,0,1,72.72,37l.12-.12a5.58,5.58,0,0,1,3.82-1.52h8.93ZM92.08,57a1.78,1.78,0,1,1,1.78-1.78A1.78,1.78,0,0,1,92.08,57ZM81.65,83.9a1.78,1.78,0,0,1,0-3.55h17.8a1.78,1.78,0,0,1,0,3.55Zm0-6.61a1.78,1.78,0,0,1,0-3.55h17.8a1.78,1.78,0,0,1,0,3.55ZM91.92,60.54l3.89-2.74a1.79,1.79,0,0,1,2,0l1.5,1V50.42H81.73v9.8l3.85-2.7a1.77,1.77,0,0,1,2,0l4.28,3Zm7.45,2.65-2.54-1.77-1.94,1.36a1.77,1.77,0,0,1-2.49,2.43l-5.8-4.08-4.86,3.42v2.77H99.37ZM80,46.87h21.18a1.78,1.78,0,0,1,1.78,1.77V69.09a1.78,1.78,0,0,1-1.78,1.78H80a1.78,1.78,0,0,1-1.77-1.78V48.64A1.77,1.77,0,0,1,80,46.87ZM45.43,67.14a1.78,1.78,0,0,1,0-3.55H66.62a1.78,1.78,0,0,1,0,3.55Zm0-8.13a1.78,1.78,0,0,1,0-3.55H66.62a1.78,1.78,0,0,1,0,3.55Zm0-8.13a1.78,1.78,0,0,1,0-3.55H66.62a1.78,1.78,0,0,1,0,3.55Zm0-8.13a1.78,1.78,0,0,1,0-3.55H66.62a1.78,1.78,0,0,1,0,3.55ZM90.52,89.54a1.78,1.78,0,0,1,0-3.55h.06a1.78,1.78,0,0,1,0,3.55Zm-3-44.86a1.78,1.78,0,0,1,0-3.55h6.14a1.78,1.78,0,0,1,0,3.55Zm-12.85,45a2.06,2.06,0,0,0,.59,1.43,2,2,0,0,0,1.43.59h27.79a2,2,0,0,0,1.43-.59,2,2,0,0,0,.6-1.43V41a2,2,0,0,0-2-2H76.65a2,2,0,0,0-1.36.53l-.07.07A2,2,0,0,0,74.63,41V89.71Zm-3.55-14H56.58l2,7.06h3a5.91,5.91,0,0,1,5.91,5.91v4.86a1.78,1.78,0,0,1-1.78,1.77H23.39a1.78,1.78,0,0,1-1.78-1.77V88.65a5.92,5.92,0,0,1,5.91-5.91h3l2-7.06H5.89A5.92,5.92,0,0,1,0,69.77V24a5.92,5.92,0,0,1,5.91-5.91H62a1.78,1.78,0,0,1,0,3.55H5.88A2.36,2.36,0,0,0,3.52,24v7.09H38.61l11-4a1.87,1.87,0,0,1,.61-.11H85.58V24a2.38,2.38,0,0,0-.7-1.66l-.07-.08a2.37,2.37,0,0,0-1.59-.62h-8.1a1.78,1.78,0,0,1,0-3.55h8.1a6,6,0,0,1,4.06,1.62l.11.11A5.89,5.89,0,0,1,89.12,24V35.4h15.31A5.6,5.6,0,0,1,110,41V89.71a5.6,5.6,0,0,1-5.58,5.58H76.64a5.57,5.57,0,0,1-5.58-5.58v-14ZM25.16,44.87a3.27,3.27,0,0,1,2.34,1l.13.14a3.31,3.31,0,0,1-2.47,5.5,3.32,3.32,0,0,1-2.34-1,3.3,3.3,0,0,1,0-4.67,3.33,3.33,0,0,1,2.34-1Zm.12,12.18,5.4-3.8a1.79,1.79,0,0,1,2,0L36,55.59V42.75H11.21V57.18l6.11-4.29a1.77,1.77,0,0,1,2.05,0L25.27,57Zm10.77,2.88L31.7,56.87l-3.34,2.35a1.78,1.78,0,0,1-2.14,2.83L18.34,56.5l-7.12,5V64H36.05V59.93ZM9.44,39.2H37.82A1.78,1.78,0,0,1,39.6,41V65.79a1.78,1.78,0,0,1-1.78,1.77H9.44a1.77,1.77,0,0,1-1.77-1.77V41A1.78,1.78,0,0,1,9.44,39.2ZM21,28.37a1.78,1.78,0,1,1,1.79-1.78A1.78,1.78,0,0,1,21,28.37Zm-6.31,0a1.78,1.78,0,1,1,1.78-1.78A1.78,1.78,0,0,1,14.68,28.37Zm-6.33,0a1.78,1.78,0,1,1,1.79-1.78A1.78,1.78,0,0,1,8.35,28.37ZM36.23,75.68l-2,7.07h20.7l-2-7.07ZM68.72,18.09a1.78,1.78,0,1,1,0,3.55h-.26a1.78,1.78,0,0,1,0-3.55ZM61.59,86.3H27.53a2.36,2.36,0,0,0-2.36,2.35v3.09H64V88.65A2.36,2.36,0,0,0,61.6,86.3Z" transform="translate(0.03 -18.09)"/></svg>