<?xml version="1.0" encoding="utf-8"?>
<!-- Generator: Adobe Illustrator 22.1.0, SVG Export Plug-In . SVG Version: 6.00 Build 0)  -->
<svg version="1.1" id="Layer_1" xmlns="http://www.w3.org/2000/svg" xmlns:xlink="http://www.w3.org/1999/xlink" x="0px" y="0px"
	 viewBox="0 0 99.8 100" style="enable-background:new 0 0 99.8 100;" xml:space="preserve">
<style type="text/css">
	.st0{fill:#010101;}
	.st1{fill:#231F20;}
</style>
<title>UXdesignIcon</title>
<path class="st0" d="M49.7,33.8c-8.9,0-16.1,7.3-16.1,16.2c0,8.9,7.2,16.2,16.1,16.2c0,0,0,0,0.1,0c8.9,0,16.1-7.3,16.1-16.2
	C65.9,41,58.7,33.8,49.7,33.8z M49.7,63.6c-7.5,0-13.6-6.1-13.6-13.6c0-7.5,6.1-13.6,13.6-13.6c0,0,0,0,0,0
	c7.5,0,13.6,6.1,13.6,13.7C63.4,57.6,57.2,63.6,49.7,63.6z"/>
<path class="st1" d="M53.5,51.1h-1.8c1.6-0.6,2.9-1.8,3.5-3.5c1.1-3-0.5-6.2-3.5-7.3c-3-1.1-6.2,0.5-7.3,3.5c-1.1,3,0.5,6.2,3.5,7.3
	h-1.8c-3,0-5.5,2.5-5.5,5.5v2.2c0,0,0,0,0,0c0,0.7,0.6,1.3,1.3,1.3h15.9c0.7,0,1.3-0.6,1.3-1.3v-2.2C59,53.5,56.5,51.1,53.5,51.1z
	 M46.6,45.7c0-1.8,1.4-3.2,3.2-3.2c1.8,0,3.2,1.4,3.2,3.2c0,0,0,0,0,0c0,1.8-1.4,3.2-3.2,3.2S46.6,47.4,46.6,45.7z M56.5,57.5H43
	v-0.9c0-1.7,1.3-3,3-3h7.4c1.7,0,3,1.3,3,3V57.5z"/>
<path class="st0" d="M43.3,5.7h12.8c0.7,0,1.3,0.6,1.3,1.3c0,0.7-0.6,1.3-1.3,1.3H43.3c-0.7,0-1.3-0.6-1.3-1.3
	C42.1,6.2,42.6,5.7,43.3,5.7z"/>
<path class="st0" d="M88.9,31.9l-7.3,8.9V27.4H84v3.2c0,1.8,1.3,2.2,2.5,1l4-4.2h5.8c1.8,0,3.3-1.5,3.3-3.3V7.2
	C99.5,5.4,98,4,96.3,4H81.4c-0.8-2.4-3-4-5.5-4H23.7c-3.2,0-5.8,2.6-5.8,5.8v11.6H3.3c-1.8,0-3.3,1.5-3.3,3.3v16.9
	c0,1.8,1.5,3.3,3.3,3.3h5.8l3.9,4.1c1.3,1.4,2.6,0.9,2.6-1v-3.1h2.3v19.9H6.3c-1.8,0-3.3,1.5-3.3,3.3v14.7c0,1.8,1.5,3.3,3.3,3.3
	h11.5v12.2c0,3.2,2.6,5.8,5.8,5.8h52.2c3.2,0,5.8-2.6,5.8-5.8V60.1l16.7-20.5C103.4,33.4,93.9,25.7,88.9,31.9z M96.2,6.5
	c0.4,0,0.7,0.3,0.7,0.7v16.9c0,0.4-0.3,0.7-0.7,0.7h-6.1c-0.4,0-0.8,0.1-1.1,0.4l-2.5,2.4v-1.5c0-0.7-0.6-1.3-1.3-1.3h-16
	c-0.4,0-0.7-0.3-0.7-0.7V7.2c0-0.4,0.3-0.7,0.7-0.7H96.2z M20.4,5.8c0-1.8,1.4-3.2,3.2-3.2h52.2c1.1,0,2,0.5,2.6,1.4h-9.3
	C67.5,4,66,5.5,66,7.2v4.1H20.4V5.8z M14.3,38.3L14.3,38.3c-0.7,0-1.3,0.6-1.3,1.3V41l-2.5-2.3c-0.3-0.3-0.7-0.4-1.1-0.4H3.3
	c-0.4,0-0.7-0.3-0.7-0.7V20.7c0-0.4,0.3-0.7,0.7-0.7h27c0.4,0,0.7,0.3,0.7,0.7v16.9c0,0.4-0.3,0.7-0.7,0.7H14.3z M6.3,79.4
	c-0.4,0-0.7-0.3-0.7-0.7V64c0-0.4,0.3-0.7,0.7-0.7h15.4c0.4,0,0.8-0.1,1.1-0.5l2.5-2.4V62c0,0.7,0.6,1.3,1.3,1.3c0,0,0,0,0,0h6.7
	c0.4,0,0.7,0.3,0.7,0.7v14.7c0,0.4-0.3,0.7-0.7,0.7H6.3z M79.1,94.2c0,1.8-1.4,3.2-3.2,3.2H23.7c-1.8,0-3.2-1.4-3.2-3.2v-5.5h58.7
	L79.1,94.2z M79.1,86.2H20.4V82h12.9c1.8,0,3.3-1.5,3.3-3.3V64c0,0,0,0,0-0.1c0-1.8-1.5-3.3-3.3-3.3h-5.4v-3.2c0-1.8-1.3-2.2-2.5-1
	l-4,4.2h-1V40.8h9.8c1.8,0,3.3-1.5,3.3-3.3V20.7c0-1.8-1.5-3.3-3.3-3.3h-9.8v-3.5H66v10.3c0,1.8,1.5,3.3,3.3,3.3h9.8V44L63.9,62.7
	c-7.2,4.8-11.5,11.3-11,20.2c0.1,2.5,0.3,2.7,2.8,2.3c8.8-1.3,14.3-6.9,17.6-14.8l5.8-7.2V86.2z M72.9,55.5l5.5,4.5l-6,7.3l-2.8-2.2
	L67,62.8L72.9,55.5z M80,58.1l-5.5-4.5l2.8-3.5l5.6,4.5L80,58.1z M96.4,38L84.5,52.6l-5.6-4.5l11.9-14.6
	C93.8,29.9,99.4,34.4,96.4,38z"/>
<path class="st0" d="M55.4,82.7c7.9-1.2,12.8-6.2,15.6-13.4L68.2,67l-2.8-2.3C58.9,69,55,74.7,55.4,82.7L55.4,82.7z"/>
<path class="st0" d="M11.3,72.6h17c0.7,0.1,1.2,0.7,1.2,1.4c-0.1,0.6-0.6,1.1-1.2,1.2h-17c-0.7-0.1-1.2-0.7-1.2-1.4
	C10.2,73.1,10.7,72.6,11.3,72.6z"/>
<path class="st0" d="M11.3,67.5h17c0.7,0.1,1.2,0.7,1.2,1.4c-0.1,0.6-0.6,1.1-1.2,1.2h-17c-0.7,0-1.3-0.6-1.3-1.3
	S10.6,67.5,11.3,67.5z"/>
<path class="st0" d="M91.3,14.4H74.2C73.5,14.4,73,13.7,73,13c0.1-0.6,0.6-1.1,1.2-1.2h17.1c0.7,0.1,1.2,0.7,1.2,1.4
	C92.4,13.9,91.9,14.4,91.3,14.4z"/>
<path class="st0" d="M91.3,19.5H74.2c-0.7-0.1-1.2-0.7-1.2-1.4c0.1-0.6,0.6-1.1,1.2-1.2h17.1c0.7,0.1,1.2,0.7,1.2,1.4
	C92.4,19,91.9,19.5,91.3,19.5z"/>
<path class="st0" d="M8.3,27.8h17c0.7,0,1.3-0.6,1.3-1.3c0-0.7-0.6-1.3-1.3-1.3h-17c-0.6,0.4-0.7,1.4-0.3,2
	C8.1,27.4,8.2,27.6,8.3,27.8z"/>
<path class="st0" d="M8.3,33h17c0.7-0.1,1.2-0.7,1.2-1.4c-0.1-0.6-0.6-1.1-1.2-1.2h-17C7.5,30.4,7,31,7,31.7C7,32.4,7.5,33,8.3,33z"
	/>
<path class="st0" d="M49.8,95.8c1.5,0,2.7-1.2,2.7-2.7c0-1.5-1.2-2.7-2.7-2.7c-1.5,0-2.7,1.2-2.7,2.7C47.1,94.6,48.3,95.8,49.8,95.8
	z"/>
</svg>
